Hanif_Deep_7_5_grf.mot
version=1
nRows=58
nColumns=19
inDegrees=yes
endheader
time	right_ground_force_vx	right_ground_force_vy	right_ground_force_vz	right_ground_force_px	right_ground_force_py	right_ground_force_pz	right_ground_torque_x	right_ground_torque_y	right_ground_torque_z	left_ground_force_vx	left_ground_force_vy	left_ground_force_vz	left_ground_force_px	left_ground_force_py	left_ground_force_pz	left_ground_torque_x	left_ground_torque_y	left_ground_torque_z
0.900000	-10.186400	266.427000	23.293300	0.261151	0.000000	-1.406690	-26.517800	-0.901824	16.426400	-11.887200	221.129000	-12.471000	0.273615	0.000000	-1.039830	30.447300	-0.981161	16.477200
0.905000	-10.361000	273.216000	22.753200	0.259500	0.000000	-1.407840	-26.876900	-0.809653	16.386400	-12.282500	225.166000	-10.990700	0.273477	0.000000	-1.038580	30.723400	-1.101770	16.719100
0.910000	-10.432300	278.102000	22.300000	0.259810	0.000000	-1.407280	-27.515200	-0.751539	16.762600	-12.535300	228.043000	-10.062400	0.273530	0.000000	-1.039530	31.325700	-1.011000	16.920800
0.915000	-10.481500	280.443000	21.477900	0.258912	0.000000	-1.408750	-27.331700	-0.708693	16.642100	-12.829200	229.317000	-10.071900	0.273519	0.000000	-1.040160	31.651100	-1.026690	17.014100
0.920000	-11.547700	281.674000	20.633400	0.258124	0.000000	-1.408270	-27.600200	-0.548101	16.502300	-13.587700	233.176000	-9.779860	0.273371	0.000000	-1.038510	31.804100	-0.964023	17.256100
0.925000	-12.536000	283.809000	19.822300	0.258179	0.000000	-1.408600	-27.726100	-0.513479	16.641800	-14.356900	237.231000	-10.678200	0.273807	0.000000	-1.038210	32.304200	-1.053110	17.679600
0.930000	-14.330600	289.664000	19.013400	0.256749	0.000000	-1.407830	-28.534600	-0.508508	16.567800	-15.036100	242.110000	-9.935690	0.272796	0.000000	-1.038330	32.993600	-0.947640	17.776600
0.935000	-16.750400	295.411000	18.790800	0.255996	0.000000	-1.410730	-28.263600	-0.529375	16.676600	-15.303300	246.799000	-9.236410	0.272446	0.000000	-1.037470	33.419700	-1.014360	18.019600
0.940000	-18.053000	297.753000	18.665400	0.255453	0.000000	-1.411560	-28.255300	-0.507886	16.651300	-15.137800	249.545000	-8.497650	0.272354	0.000000	-1.038830	34.120600	-1.031170	18.181600
0.945000	-18.563100	299.516000	18.898600	0.255010	0.000000	-1.411330	-28.500800	-0.463314	16.623800	-15.100200	252.805000	-9.555310	0.271047	0.000000	-1.037680	34.281800	-1.206550	18.109100
0.950000	-17.976800	306.254000	19.733800	0.253658	0.000000	-1.413150	-28.582000	-0.254680	16.592400	-15.003300	256.059000	-10.295400	0.271022	0.000000	-1.036960	34.540100	-1.346030	18.350200
0.955000	-16.664400	306.913000	20.698600	0.251917	0.000000	-1.412090	-28.965600	-0.005523	16.111500	-15.791100	260.669000	-10.375100	0.270057	0.000000	-1.036670	35.097500	-1.369080	18.429200
0.960000	-15.014900	309.731000	22.023200	0.249778	0.000000	-1.414030	-28.617100	0.254271	15.611900	-16.282600	263.013000	-9.709280	0.268803	0.000000	-1.035210	35.028100	-1.308080	18.248400
0.965000	-12.410100	309.577000	22.945000	0.248904	0.000000	-1.417240	-27.588000	0.514184	15.342500	-16.638100	266.192000	-8.778560	0.269614	0.000000	-1.035680	35.574300	-1.269100	18.665600
0.970000	-10.721400	312.838000	23.915000	0.247101	0.000000	-1.417300	-27.847200	0.769269	14.952600	-17.579100	271.167000	-7.374610	0.267931	0.000000	-1.034860	36.030200	-1.390000	18.535100
0.975000	-9.993470	315.795000	23.892400	0.245061	0.000000	-1.419370	-27.455600	1.131890	14.462600	-18.120600	276.272000	-7.980180	0.267016	0.000000	-1.033960	36.466100	-1.433400	18.640100
0.980000	-9.367640	316.674000	24.287600	0.243534	0.000000	-1.419960	-27.340100	1.260740	14.025600	-19.104700	280.961000	-8.681540	0.267164	0.000000	-1.033930	37.098100	-1.509700	19.012500
0.985000	-8.929110	314.751000	24.268500	0.243629	0.000000	-1.421070	-26.822000	1.360100	13.977400	-18.446700	284.469000	-10.000800	0.266523	0.000000	-1.033570	37.441700	-1.515870	19.085000
0.990000	-8.758960	314.838000	24.573100	0.241584	0.000000	-1.422150	-26.491100	1.509260	13.347200	-17.160600	287.430000	-11.421500	0.265758	0.000000	-1.032420	37.478000	-1.706770	19.086600
0.995000	-8.845860	318.437000	25.573600	0.240153	0.000000	-1.422660	-26.628900	1.487150	13.047300	-16.622700	289.384000	-12.745800	0.264524	0.000000	-1.031810	37.550600	-1.834140	18.883500
1.000000	-8.288980	320.748000	25.921500	0.238606	0.000000	-1.424080	-26.361200	1.600630	12.647900	-14.958100	291.274000	-12.779600	0.264033	0.000000	-1.032160	37.868500	-2.049460	18.861800
1.005000	-7.606260	321.899000	26.137700	0.237061	0.000000	-1.425500	-25.991300	1.671730	12.194100	-14.362500	291.702000	-13.234100	0.263129	0.000000	-1.031220	37.649400	-2.346740	18.642700
1.010000	-5.226200	322.252000	27.095200	0.236197	0.000000	-1.426080	-25.811400	2.051490	11.954800	-13.084100	291.113000	-13.575600	0.261811	0.000000	-1.031170	37.540500	-2.602130	18.232500
1.015000	-3.485520	324.031000	26.762200	0.235434	0.000000	-1.424970	-26.293900	2.252350	11.769500	-11.990200	295.118000	-13.645100	0.261326	0.000000	-1.030410	37.811900	-2.829840	18.338400
1.020000	-2.166030	329.734000	25.739200	0.234261	0.000000	-1.427090	-26.041900	2.426560	11.568600	-10.491700	300.252000	-14.530300	0.260147	0.000000	-1.029040	38.027700	-3.054780	18.313300
1.025000	-0.263348	330.358000	25.263200	0.232862	0.000000	-1.426040	-26.417700	2.693610	11.127200	-9.601920	304.216000	-14.524400	0.259168	0.000000	-1.028570	38.374100	-3.434070	18.262300
1.030000	0.310867	331.091000	24.514900	0.231771	0.000000	-1.426740	-26.239300	2.867170	10.787300	-8.219230	305.736000	-15.646500	0.259048	0.000000	-1.028630	38.556200	-3.532920	18.333900
1.035000	0.847599	331.422000	24.404000	0.231453	0.000000	-1.427240	-26.093900	3.000770	10.696600	-7.023550	306.896000	-16.240400	0.258105	0.000000	-1.028810	38.738200	-3.754890	18.127600
1.040000	1.804070	333.711000	24.445000	0.230658	0.000000	-1.427760	-26.090600	3.121220	10.504000	-7.054990	310.272000	-16.260100	0.257147	0.000000	-1.027370	38.717800	-3.893540	18.029700
1.045000	0.929798	335.876000	24.010800	0.228727	0.000000	-1.428660	-25.967800	3.079810	9.913080	-6.975680	312.128000	-16.103800	0.255784	0.000000	-1.026960	38.817500	-3.883740	17.703100
1.050000	0.415470	337.395000	23.795300	0.228407	0.000000	-1.428950	-25.990600	3.108270	9.848860	-7.903740	311.097000	-15.564600	0.256241	0.000000	-1.027320	38.823800	-3.934800	17.786400
1.055000	-0.432836	335.655000	23.524900	0.227533	0.000000	-1.428880	-25.890300	3.027010	9.501600	-9.124180	312.471000	-15.044000	0.255714	0.000000	-1.026630	38.799100	-3.787580	17.686100
1.060000	-0.378537	337.809000	23.200300	0.226963	0.000000	-1.429930	-25.700700	2.996680	9.359220	-10.735300	317.386000	-14.815900	0.255445	0.000000	-1.026030	39.244500	-3.664940	17.868400
1.065000	-1.031650	339.244000	23.472500	0.226950	0.000000	-1.429960	-25.807500	2.900350	9.392440	-12.270100	320.917000	-13.703800	0.255232	0.000000	-1.026720	39.930500	-3.669680	17.978900
1.070000	-0.962400	342.070000	23.290200	0.225823	0.000000	-1.429880	-26.049700	2.818310	9.071090	-12.650000	326.182000	-14.324300	0.254772	0.000000	-1.025930	40.331500	-3.717570	18.131600
1.075000	-1.458810	343.333000	22.465300	0.225565	0.000000	-1.430020	-26.100400	2.941330	9.014690	-12.233500	328.842000	-14.726100	0.254077	0.000000	-1.024810	40.282200	-3.775140	18.054100
1.080000	-1.504190	345.739000	21.401200	0.225131	0.000000	-1.430600	-26.085000	2.899300	8.908390	-12.481400	327.555000	-15.228500	0.253151	0.000000	-1.025930	40.499900	-3.773420	17.694100
1.085000	-1.739600	345.844000	20.452900	0.224164	0.000000	-1.429780	-26.379700	3.022050	8.572810	-11.713200	326.035000	-15.477300	0.253366	0.000000	-1.025700	40.224300	-3.841070	17.688900
1.090000	-2.125710	349.484000	19.406600	0.223670	0.000000	-1.430030	-26.574500	3.108070	8.479310	-11.144600	326.819000	-15.497000	0.252419	0.000000	-1.024360	39.869900	-3.867140	17.417500
1.095000	-1.556640	349.798000	18.449400	0.223499	0.000000	-1.429420	-26.805100	3.179330	8.416900	-11.650900	326.305000	-14.794800	0.251624	0.000000	-1.024290	39.791400	-3.847460	17.118300
1.100000	-1.258290	352.454000	17.888300	0.223296	0.000000	-1.429560	-26.954500	3.279330	8.403240	-11.912100	325.526000	-14.022600	0.251691	0.000000	-1.023970	39.600200	-3.897500	17.088000
1.105000	-1.096490	351.940000	17.325600	0.222899	0.000000	-1.429880	-26.802200	3.446260	8.252240	-12.443000	324.911000	-13.709200	0.251520	0.000000	-1.023640	39.435300	-4.003110	17.001500
1.110000	-1.134190	353.265000	16.961500	0.221788	0.000000	-1.430950	-26.526700	3.548270	7.889140	-12.627000	325.071000	-12.435500	0.251309	0.000000	-1.023510	39.412300	-3.945310	16.912700
1.115000	-0.599124	351.613000	16.385700	0.221024	0.000000	-1.430920	-26.404900	3.515420	7.574400	-12.762900	326.960000	-12.444200	0.250167	0.000000	-1.023770	39.726000	-4.001810	16.637300
1.120000	-2.112460	350.229000	17.249800	0.220379	0.000000	-1.431700	-26.045700	3.334700	7.326650	-12.150500	328.627000	-12.417900	0.250128	0.000000	-1.023570	39.848200	-4.020090	16.704100
1.125000	-2.906360	349.081000	16.580200	0.220016	0.000000	-1.432610	-25.649800	3.352070	7.172210	-11.974000	327.225000	-12.762900	0.249193	0.000000	-1.023060	39.518500	-4.255020	16.343700
1.130000	-3.639670	348.091000	16.390600	0.219295	0.000000	-1.432530	-25.616600	3.313410	6.899760	-11.362000	327.413000	-12.393500	0.248874	0.000000	-1.022740	39.422500	-4.364050	16.241600
1.135000	-4.507410	347.699000	15.930300	0.218925	0.000000	-1.433460	-25.272900	3.261140	6.758290	-11.687800	326.662000	-11.522100	0.248558	0.000000	-1.023270	39.510500	-4.298080	16.083000
1.140000	-4.288080	345.419000	15.935200	0.218372	0.000000	-1.433350	-25.141200	3.223270	6.522490	-10.896300	327.442000	-11.231500	0.248445	0.000000	-1.022830	39.444300	-4.388110	16.076800
1.145000	-5.231870	346.082000	14.875800	0.217682	0.000000	-1.433100	-25.287800	3.274280	6.287870	-11.800600	330.604000	-11.160500	0.246564	0.000000	-1.021850	39.518600	-4.427090	15.608400
1.150000	-5.834810	342.877000	13.949200	0.217447	0.000000	-1.433670	-24.869300	3.325300	6.144380	-12.232300	331.914000	-11.381500	0.247025	0.000000	-1.021910	39.704400	-4.458440	15.829400
1.155000	-6.333210	340.293000	13.611700	0.216875	0.000000	-1.434480	-24.412200	3.248660	5.899610	-12.402900	332.450000	-11.220900	0.246715	0.000000	-1.021530	39.645300	-4.464300	15.748300
1.160000	-6.346880	341.986000	13.026500	0.215989	0.000000	-1.435450	-24.202000	3.308640	5.618880	-11.866400	332.298000	-11.379500	0.246017	0.000000	-1.022000	39.772500	-4.461220	15.510400
1.165000	-7.019260	339.202000	12.708300	0.215552	0.000000	-1.434710	-24.265600	3.367450	5.427410	-12.011600	336.002000	-11.799000	0.245314	0.000000	-1.021430	40.026600	-4.556490	15.454200
1.170000	-6.473040	339.014000	12.575500	0.215384	0.000000	-1.436130	-23.766900	3.488740	5.368800	-11.035700	337.576000	-11.943500	0.244570	0.000000	-1.019990	39.704600	-4.667870	15.275400
1.175000	-6.562430	337.064000	11.845900	0.214185	0.000000	-1.436610	-23.470800	3.566420	4.928430	-10.022600	338.740000	-12.809400	0.244313	0.000000	-1.019540	39.670500	-4.819940	15.258600
1.180000	-6.567070	335.314000	12.288400	0.214162	0.000000	-1.436850	-23.271300	3.611990	4.904040	-8.555390	339.409000	-12.930500	0.243797	0.000000	-1.021580	40.415800	-5.104130	15.119700
1.185000	-6.485580	336.355000	11.789800	0.212876	0.000000	-1.437470	-23.132900	3.716740	4.482250	-6.606360	343.128000	-13.727800	0.242609	0.000000	-1.020110	40.311000	-5.327080	14.887800
